<svg id="SvgjsSvg1066" width="100%" height="100%" xmlns="http://www.w3.org/2000/svg" version="1.1" xlink="http://www.w3.org/1999/xlink" xmlns:svgjs="http://svgjs.com/svgjs" preserveAspectRatio="xMidYMid meet" viewBox="5.3753371531684024e-8 5.604219950328115e-7 300.0000305175781 45.74104690551758" overflow="visible"><defs id="SvgjsDefs1067"><linearGradient id="SvgjsLinearGradientY-iLDd3Uz" gradientUnits="userSpaceOnUse" x1="6.902782440185559" y1="93.0974063873291" x2="93.09759521484376" y2="6.902593612670893"><stop id="SvgjsStop1070" stop-color="#4880a8" offset="0.05"></stop><stop id="SvgjsStop1071" stop-color="#223c4f" offset="0.95"></stop></linearGradient></defs><g id="SvgjsG1068" transform="scale(0.5517084435101589)" opacity="1"><g id="SvgjsG1072" class="i3OHPuUPLT" transform="translate(-5.031813899964576, -8.860357898988761) scale(1.0062871579797752)" light-content="false" fill="url(#SvgjsLinearGradientY-iLDd3Uz)"><path d="M92.726 17.19c-3.03-5.25-8.46-8.385-14.523-8.385H21.797c-6.063 0-11.492 3.135-14.523 8.385s-3.032 11.52 0 16.77l28.202 48.85c3.032 5.25 8.461 8.385 14.524 8.385 6.063 0 11.493-3.135 14.523-8.385l28.203-48.85c3.032-5.25 3.032-11.519 0-16.77zm-82.438 1.74c2.402-4.16 6.705-6.645 11.509-6.645h31.046c4.398 0 8.195 2.207 10.417 6.055 2.333 4.04 2.32 9.08-.016 13.128l-.6 1H36.153l-.02.033-2.13-.033c-5.736 0-10.866 2.954-13.722 7.901a16.149 16.149 0 0 0-1.995 5.705l-7.998-13.853c-2.403-4.162-2.403-9.13 0-13.29zm39.604 35.593L39.167 35.948h21.449L49.892 54.523zM61.509 81.07c-2.402 4.16-6.704 6.645-11.509 6.645-4.804 0-9.107-2.484-11.51-6.645L23.336 54.82c-2.311-4.001-2.326-8.753-.041-12.71 2.227-3.859 6.23-6.162 10.68-6.162l1.184.019 13.212 22.882 1.058 1.905c2.904 5.029 8.104 8.031 13.91 8.031a16.18 16.18 0 0 0 5.902-1.107L61.509 81.07zm28.203-48.85l-15.47 26.797-.006-.003c-2.274 3.94-6.348 6.291-10.896 6.291s-8.623-2.352-10.882-6.267l-.566-1.019 13.245-22.941 1.106-1.846c2.972-5.145 2.983-11.518.031-16.632a15.778 15.778 0 0 0-3.654-4.315h15.583c4.805 0 9.108 2.484 11.51 6.646 2.402 4.16 2.402 9.129 0 13.29z"></path></g><g id="SvgjsG1073" class="text" transform="translate(333.1354753516732, 48.10900076293945) scale(1)" light-content="false" fill="#223c4f"><path d="M-198.57 -19.2L-194.31 -33.06L-193.83 -35.46L-188.85 -19.2ZM-189.75 -2.82L-173.37 -2.82C-173.25 -3.46 -173.15 -4.38 -173.07 -5.58C-174.43 -5.62 -175.44 -5.9 -176.1 -6.42C-176.76 -6.94 -177.31 -7.86 -177.75 -9.18L-188.13 -41.7C-191.29 -41.62 -193.77 -41.38 -195.57 -40.98L-206.01 -9.3C-206.65 -7.34 -208.09 -6.1 -210.33 -5.58C-210.49 -4.78 -210.57 -3.86 -210.57 -2.82L-198.03 -2.82C-197.87 -3.62 -197.79 -4.54 -197.79 -5.58C-199.87 -5.58 -201.43 -5.86 -202.47 -6.42L-199.59 -15.84L-187.77 -15.84L-185.07 -7.02C-186.03 -6.54 -187.51 -6.06 -189.51 -5.58C-189.67 -4.74 -189.75 -3.82 -189.75 -2.82Z M-159.21 -21.72L-159.21 -37.8L-155.85 -37.8C-153.21 -37.8 -151.19 -37.08 -149.79 -35.64C-148.39 -34.2 -147.69 -32.24 -147.69 -29.76C-147.69 -27.28 -148.4 -25.32 -149.82 -23.88C-151.24 -22.44 -153.25 -21.72 -155.85 -21.72ZM-154.41 -18.6C-150.01 -18.6 -146.42 -19.64 -143.64 -21.72C-140.86 -23.8 -139.47 -26.46 -139.47 -29.7C-139.47 -32.94 -140.87 -35.62 -143.67 -37.74C-146.47 -39.86 -150.07 -40.92 -154.47 -40.92L-170.79 -40.92C-170.91 -40.04 -170.97 -39.4 -170.97 -39L-170.97 -38.16C-169.49 -38.16 -168.11 -37.9 -166.83 -37.38L-166.83 -8.88C-166.83 -7.76 -167.13 -6.98 -167.73 -6.54C-168.33 -6.1 -169.29 -5.78 -170.61 -5.58C-170.77 -4.98 -170.85 -4.44 -170.85 -3.96L-170.85 -2.82L-154.05 -2.82C-153.85 -3.46 -153.75 -4.38 -153.75 -5.58C-155.95 -5.74 -157.77 -6.12 -159.21 -6.72L-159.21 -18.6Z M-124.59 -5.94L-124.59 -20.34L-115.95 -19.86L-113.61 -19.86L-113.61 -24.24L-115.95 -24.24L-124.59 -23.58L-124.59 -37.86L-115.95 -37.86C-114.47 -37.86 -113.31 -37.44 -112.47 -36.6C-111.87 -36 -111.39 -34.08 -111.03 -30.84C-109.75 -30.84 -108.71 -30.88 -107.91 -30.96C-107.71 -33.24 -107.61 -35.26 -107.61 -37.02L-107.61 -40.92L-136.11 -40.92C-136.31 -40.28 -136.41 -39.36 -136.41 -38.16C-134.65 -38.16 -133.23 -37.9 -132.15 -37.38L-132.15 -8.88C-132.15 -7.76 -132.45 -6.98 -133.05 -6.54C-133.65 -6.1 -134.61 -5.78 -135.93 -5.58C-136.13 -4.98 -136.23 -4.43 -136.23 -3.93L-136.23 -2.82L-107.01 -2.82C-106.97 -3.94 -106.95 -5.36 -106.95 -7.08C-106.95 -8.8 -107.03 -10.82 -107.19 -13.14C-107.83 -13.26 -108.93 -13.32 -110.49 -13.32C-110.77 -10.64 -111.21 -8.74 -111.81 -7.62C-112.41 -6.5 -113.67 -5.94 -115.59 -5.94Z M-68.01 -5.58C-68.97 -5.66 -69.77 -5.82 -70.41 -6.06L-82.11 -22.98L-73.05 -35.4C-71.81 -37.16 -70.25 -38.08 -68.37 -38.16C-68.05 -38.92 -67.89 -39.84 -67.89 -40.92L-78.87 -40.92C-78.91 -40.6 -78.93 -40.21 -78.93 -39.75C-78.93 -39.29 -78.87 -38.76 -78.75 -38.16C-77.63 -38.08 -76.53 -37.9 -75.45 -37.62L-84.03 -25.74L-91.11 -35.94C-91.35 -36.26 -91.47 -36.56 -91.47 -36.84C-91.47 -37.52 -90.59 -37.98 -88.83 -38.22C-88.83 -39.34 -88.91 -40.24 -89.07 -40.92L-103.71 -40.92C-103.79 -40.64 -103.83 -40.29 -103.83 -39.87C-103.83 -39.45 -103.75 -38.9 -103.59 -38.22C-102.95 -38.18 -102.15 -38.02 -101.19 -37.74L-89.37 -20.76L-98.19 -8.34C-99.59 -6.54 -101.17 -5.62 -102.93 -5.58C-103.21 -4.94 -103.35 -4.37 -103.35 -3.87L-103.35 -2.82L-92.43 -2.82C-92.39 -3.14 -92.37 -3.52 -92.37 -3.96C-92.37 -4.4 -92.43 -4.94 -92.55 -5.58C-93.83 -5.66 -94.95 -5.82 -95.91 -6.06L-87.45 -17.94L-80.37 -7.8C-79.93 -7.28 -79.87 -6.82 -80.19 -6.42C-80.51 -6.02 -81.33 -5.74 -82.65 -5.58C-82.65 -4.18 -82.57 -3.26 -82.41 -2.82L-67.83 -2.82C-67.79 -3.14 -67.77 -3.53 -67.77 -3.99C-67.77 -4.45 -67.85 -4.98 -68.01 -5.58Z M-14.97 -34.86C-14.97 -35.98 -14.67 -36.77 -14.07 -37.23C-13.47 -37.69 -12.51 -38 -11.19 -38.16C-11.03 -38.72 -10.95 -39.25 -10.95 -39.75L-10.95 -40.92L-26.55 -40.92C-26.71 -40.2 -26.79 -39.62 -26.79 -39.18L-26.79 -38.16C-25.19 -38.16 -23.81 -37.92 -22.65 -37.44L-22.65 -23.64L-37.95 -23.64L-37.95 -34.86C-37.95 -35.98 -37.64 -36.77 -37.02 -37.23C-36.4 -37.69 -35.45 -38 -34.17 -38.16C-33.97 -38.72 -33.87 -39.25 -33.87 -39.75C-33.87 -40.25 -33.89 -40.64 -33.93 -40.92L-49.47 -40.92C-49.67 -40.28 -49.77 -39.36 -49.77 -38.16C-48.09 -38.16 -46.67 -37.9 -45.51 -37.38L-45.51 -8.88C-45.51 -7.76 -45.81 -6.98 -46.41 -6.54C-47.01 -6.1 -47.97 -5.78 -49.29 -5.58C-49.49 -4.98 -49.59 -4.43 -49.59 -3.93L-49.59 -2.82L-33.99 -2.82C-33.87 -3.7 -33.81 -4.34 -33.81 -4.74L-33.81 -5.58C-35.41 -5.58 -36.79 -5.82 -37.95 -6.3L-37.95 -19.92L-22.65 -19.92L-22.65 -8.88C-22.65 -7.76 -22.95 -6.98 -23.55 -6.54C-24.15 -6.1 -25.11 -5.78 -26.43 -5.58C-26.59 -5.02 -26.67 -4.1 -26.67 -2.82L-11.01 -2.82C-10.89 -3.58 -10.83 -4.5 -10.83 -5.58C-12.43 -5.58 -13.81 -5.82 -14.97 -6.3Z M5.43 -34.86C5.43 -35.98 5.74 -36.77 6.36 -37.23C6.98 -37.69 7.93 -38 9.21 -38.16C9.41 -38.72 9.51 -39.25 9.51 -39.75C9.51 -40.25 9.49 -40.64 9.45 -40.92L-6.09 -40.92C-6.29 -40.28 -6.39 -39.36 -6.39 -38.16C-4.71 -38.16 -3.29 -37.9 -2.13 -37.38L-2.13 -8.88C-2.13 -7.76 -2.43 -6.98 -3.03 -6.54C-3.63 -6.1 -4.59 -5.78 -5.91 -5.58C-6.11 -4.98 -6.21 -4.43 -6.21 -3.93L-6.21 -2.82L9.39 -2.82C9.51 -3.7 9.57 -4.34 9.57 -4.74L9.57 -5.58C7.97 -5.58 6.59 -5.82 5.43 -6.3Z M25.95 -23.4L25.95 -37.8L29.91 -37.8C32.19 -37.8 33.94 -37.18 35.16 -35.94C36.38 -34.7 36.99 -32.91 36.99 -30.57C36.99 -28.23 36.38 -26.45 35.16 -25.23C33.94 -24.01 32.19 -23.4 29.91 -23.4ZM49.59 -5.82C48.39 -5.82 47.44 -6.07 46.74 -6.57C46.04 -7.07 45.33 -8.02 44.61 -9.42L40.59 -17.28C39.59 -19.12 38.53 -20.38 37.41 -21.06C39.89 -21.82 41.79 -23.02 43.11 -24.66C44.43 -26.3 45.09 -28.28 45.09 -30.6C45.09 -33.8 43.88 -36.32 41.46 -38.16C39.04 -40 35.67 -40.92 31.35 -40.92L14.43 -40.92C14.23 -40.28 14.13 -39.36 14.13 -38.16C15.69 -38.16 17.11 -37.9 18.39 -37.38L18.39 -8.88C18.39 -7.76 18.09 -6.98 17.49 -6.54C16.89 -6.1 15.93 -5.78 14.61 -5.58C14.41 -4.98 14.31 -4.43 14.31 -3.93L14.31 -2.82L30.81 -2.82C30.97 -3.5 31.05 -4.06 31.05 -4.5C31.05 -4.94 31.03 -5.3 30.99 -5.58C29.19 -5.7 27.51 -6.08 25.95 -6.72L25.95 -20.28L28.65 -20.28C29.57 -20.28 30.27 -20.1 30.75 -19.74C31.23 -19.38 31.67 -18.78 32.07 -17.94L39.39 -2.82L49.29 -2.82C49.49 -3.62 49.59 -4.62 49.59 -5.82Z M64.95 -5.94L64.95 -20.34L73.59 -19.86L75.93 -19.86L75.93 -24.24L73.59 -24.24L64.95 -23.58L64.95 -37.86L73.59 -37.86C75.07 -37.86 76.23 -37.44 77.07 -36.6C77.67 -36 78.15 -34.08 78.51 -30.84C79.79 -30.84 80.83 -30.88 81.63 -30.96C81.83 -33.24 81.93 -35.26 81.93 -37.02L81.93 -40.92L53.43 -40.92C53.23 -40.28 53.13 -39.36 53.13 -38.16C54.89 -38.16 56.31 -37.9 57.39 -37.38L57.39 -8.88C57.39 -7.76 57.09 -6.98 56.49 -6.54C55.89 -6.1 54.93 -5.78 53.61 -5.58C53.41 -4.98 53.31 -4.43 53.31 -3.93L53.31 -2.82L82.53 -2.82C82.57 -3.94 82.59 -5.36 82.59 -7.08C82.59 -8.8 82.51 -10.82 82.35 -13.14C81.71 -13.26 80.61 -13.32 79.05 -13.32C78.77 -10.64 78.33 -8.74 77.73 -7.62C77.13 -6.5 75.87 -5.94 73.95 -5.94Z M140.49 -40.92L124.89 -40.92C124.73 -40.24 124.65 -39.32 124.65 -38.16C126.29 -38.16 127.69 -37.92 128.85 -37.44L128.85 -14.88C128.85 -8.84 126.27 -5.82 121.11 -5.82C115.95 -5.82 113.37 -8.84 113.37 -14.88L113.37 -34.86C113.37 -35.98 113.68 -36.77 114.3 -37.23C114.92 -37.69 115.87 -38 117.15 -38.16C117.31 -38.72 117.39 -39.25 117.39 -39.75L117.39 -40.92L101.85 -40.92C101.69 -40 101.61 -39.35 101.61 -38.97C101.61 -38.59 101.63 -38.32 101.67 -38.16C103.27 -38.16 104.65 -37.9 105.81 -37.38L105.81 -15C105.81 -10.52 107.17 -7.24 109.89 -5.16C112.61 -3.08 116.35 -2.04 121.11 -2.04C125.87 -2.04 129.62 -3.08 132.36 -5.16C135.1 -7.24 136.47 -10.52 136.47 -15L136.47 -34.86C136.47 -35.98 136.77 -36.77 137.37 -37.23C137.97 -37.69 138.93 -38 140.25 -38.16C140.45 -38.72 140.55 -39.25 140.55 -39.75C140.55 -40.25 140.53 -40.64 140.49 -40.92Z M170.61 -13.32C170.61 -15.68 169.98 -17.71 168.72 -19.41C167.46 -21.11 165.94 -22.43 164.16 -23.37C162.38 -24.31 160.6 -25.2 158.82 -26.04C157.04 -26.88 155.52 -27.9 154.26 -29.1C153 -30.3 152.37 -31.67 152.37 -33.21C152.37 -34.75 152.93 -35.96 154.05 -36.84C155.17 -37.72 156.63 -38.16 158.43 -38.16C162.55 -38.16 164.95 -35.72 165.63 -30.84C166.43 -30.72 167.25 -30.66 168.09 -30.66C168.61 -34.02 168.87 -37.1 168.87 -39.9C165.19 -41.06 161.63 -41.64 158.19 -41.64C154.75 -41.64 151.85 -40.73 149.49 -38.91C147.13 -37.09 145.95 -34.58 145.95 -31.38C145.95 -29.02 146.56 -26.98 147.78 -25.26C149 -23.54 150.49 -22.19 152.25 -21.21C154.01 -20.23 155.76 -19.31 157.5 -18.45C159.24 -17.59 160.72 -16.54 161.94 -15.3C163.16 -14.06 163.77 -12.62 163.77 -10.98C163.77 -9.34 163.19 -8.05 162.03 -7.11C160.87 -6.17 159.35 -5.7 157.47 -5.7C152.03 -5.7 149.31 -8.62 149.31 -14.46L149.31 -14.82C148.35 -15.02 147.33 -15.12 146.25 -15.12C145.89 -11.96 145.71 -9.54 145.71 -7.86C145.71 -6.18 145.73 -4.96 145.77 -4.2C150.17 -2.8 154.09 -2.1 157.53 -2.1C160.97 -2.1 164.01 -3.12 166.65 -5.16C169.29 -7.2 170.61 -9.92 170.61 -13.32Z M185.13 -19.2L189.39 -33.06L189.87 -35.46L194.85 -19.2ZM193.95 -2.82L210.33 -2.82C210.45 -3.46 210.55 -4.38 210.63 -5.58C209.27 -5.62 208.26 -5.9 207.6 -6.42C206.94 -6.94 206.39 -7.86 205.95 -9.18L195.57 -41.7C192.41 -41.62 189.93 -41.38 188.13 -40.98L177.69 -9.3C177.05 -7.34 175.61 -6.1 173.37 -5.58C173.21 -4.78 173.13 -3.86 173.13 -2.82L185.67 -2.82C185.83 -3.62 185.91 -4.54 185.91 -5.58C183.83 -5.58 182.27 -5.86 181.23 -6.42L184.11 -15.84L195.93 -15.84L198.63 -7.02C197.67 -6.54 196.19 -6.06 194.19 -5.58C194.03 -4.74 193.95 -3.82 193.95 -2.82Z"></path></g><g id="SvgjsG1074" class="text" transform="translate(333.0954701636849, 77.4090001525879) scale(1)" light-content="false" fill="#223c4f"><path d="M-70.22 -1.87L-70.22 -14.09C-70.22 -14.42 -70.12 -14.66 -69.91 -14.81C-69.7 -14.95 -69.31 -15.06 -68.74 -15.12C-68.67 -15.31 -68.66 -15.48 -68.69 -15.62L-72.96 -15.62C-72.99 -15.5 -73.01 -15.33 -73.01 -15.12C-72.48 -15.1 -71.94 -14.98 -71.38 -14.74L-71.38 -2.78C-71.38 -2.43 -71.48 -2.18 -71.69 -2.04C-71.9 -1.9 -72.3 -1.78 -72.89 -1.7C-72.95 -1.56 -72.97 -1.39 -72.94 -1.2L-62.86 -1.2C-62.84 -1.5 -62.83 -1.89 -62.83 -2.36C-62.83 -2.84 -62.87 -3.41 -62.95 -4.08C-63.02 -4.1 -63.15 -4.1 -63.36 -4.1C-63.44 -3.27 -63.62 -2.69 -63.91 -2.36C-64.2 -2.04 -64.74 -1.87 -65.52 -1.87Z M-57.79 -15.01C-57.58 -15.23 -57.48 -15.48 -57.48 -15.78C-57.48 -16.08 -57.58 -16.33 -57.79 -16.54C-58 -16.74 -58.25 -16.85 -58.55 -16.85C-58.84 -16.85 -59.1 -16.74 -59.3 -16.54C-59.51 -16.33 -59.62 -16.08 -59.62 -15.78C-59.62 -15.48 -59.51 -15.23 -59.3 -15.01C-59.1 -14.8 -58.84 -14.69 -58.55 -14.69C-58.25 -14.69 -58 -14.8 -57.79 -15.01ZM-59.11 -2.86C-59.11 -2.49 -59.22 -2.23 -59.45 -2.08C-59.67 -1.92 -60.1 -1.82 -60.72 -1.75C-60.75 -1.53 -60.76 -1.34 -60.74 -1.2L-56.28 -1.2C-56.23 -1.34 -56.21 -1.53 -56.21 -1.75C-56.85 -1.8 -57.42 -1.94 -57.91 -2.16L-57.91 -12.22C-58.82 -11.99 -59.77 -11.7 -60.74 -11.33C-60.79 -11.17 -60.82 -11.01 -60.82 -10.85L-60.2 -10.85C-59.94 -10.85 -59.58 -10.84 -59.11 -10.82Z M-55.39 -11.52C-54.85 -11.47 -54.46 -11.36 -54.23 -11.2C-54 -11.03 -53.78 -10.71 -53.59 -10.25L-49.85 -1.06L-48.96 -1.06L-45 -11.16C-44.49 -11.34 -43.99 -11.46 -43.51 -11.52C-43.45 -11.78 -43.42 -11.96 -43.44 -12.07L-48.02 -12.07C-48.06 -11.88 -48.03 -11.7 -47.95 -11.52C-47.07 -11.47 -46.53 -11.32 -46.32 -11.06C-46.22 -10.94 -46.18 -10.79 -46.18 -10.62C-46.18 -10.45 -46.23 -10.26 -46.34 -10.06L-49.03 -3C-49.14 -2.74 -49.22 -2.46 -49.27 -2.14L-52.61 -11.09C-52.19 -11.31 -51.59 -11.46 -50.81 -11.52C-50.81 -11.71 -50.83 -11.9 -50.88 -12.07L-55.42 -12.07L-55.42 -11.87C-55.42 -11.78 -55.41 -11.66 -55.39 -11.52Z M-35.69 -10.82C-35.14 -10.3 -34.86 -9.48 -34.85 -8.38L-38.04 -8.38L-41.09 -8.18C-40.9 -9.32 -40.47 -10.18 -39.8 -10.75C-39.14 -11.33 -38.42 -11.62 -37.66 -11.62C-36.89 -11.62 -36.23 -11.35 -35.69 -10.82ZM-41.21 -6.84C-41.21 -7.16 -41.2 -7.39 -41.18 -7.54L-33.72 -7.54C-33.69 -7.57 -33.62 -7.66 -33.53 -7.8C-33.53 -9.22 -33.9 -10.34 -34.63 -11.15C-35.37 -11.96 -36.31 -12.36 -37.45 -12.36C-38.6 -12.36 -39.7 -11.9 -40.75 -10.97C-41.26 -10.52 -41.68 -9.9 -42 -9.11C-42.32 -8.32 -42.48 -7.43 -42.48 -6.46C-42.48 -4.68 -42 -3.31 -41.05 -2.35C-40.1 -1.39 -39.02 -0.91 -37.8 -0.91C-36.2 -0.91 -34.82 -1.57 -33.67 -2.88L-33.79 -3.19C-34.96 -2.36 -36.16 -1.94 -37.39 -1.94C-38.62 -1.94 -39.57 -2.38 -40.22 -3.25C-40.88 -4.12 -41.21 -5.32 -41.21 -6.84Z M-25.75 -11.26C-25.16 -11.26 -24.63 -11.22 -24.17 -11.16L-24.17 -3.55C-24.17 -2.66 -23.93 -1.99 -23.45 -1.56C-22.97 -1.13 -22.38 -0.91 -21.67 -0.91C-20.55 -0.91 -19.6 -1.54 -18.82 -2.78L-19.01 -2.98C-19.74 -2.32 -20.54 -1.99 -21.41 -1.99C-22.43 -1.99 -22.94 -2.61 -22.94 -3.84L-22.94 -11.16L-19.61 -11.16C-19.5 -11.4 -19.44 -11.7 -19.44 -12.05C-20.37 -11.97 -21.54 -11.93 -22.94 -11.93L-22.94 -14.59L-23.21 -14.66L-24.17 -11.93C-24.7 -11.86 -25.22 -11.74 -25.73 -11.57Z M-7.75 -8.83C-7.75 -9.98 -8.04 -10.86 -8.63 -11.46C-9.21 -12.06 -9.95 -12.36 -10.85 -12.36C-12.46 -12.36 -13.7 -11.52 -14.54 -9.84L-14.54 -18.22C-15.33 -18.07 -16.27 -17.78 -17.38 -17.35C-17.42 -17.21 -17.45 -17.06 -17.45 -16.9L-16.84 -16.9C-16.57 -16.9 -16.21 -16.89 -15.74 -16.87L-15.74 -2.86C-15.74 -2.49 -15.86 -2.23 -16.08 -2.08C-16.3 -1.92 -16.73 -1.82 -17.35 -1.75C-17.38 -1.53 -17.39 -1.34 -17.38 -1.2L-12.91 -1.2C-12.86 -1.34 -12.84 -1.53 -12.84 -1.75C-13.48 -1.8 -14.05 -1.94 -14.54 -2.16L-14.54 -8.83C-13.82 -10.51 -12.7 -11.35 -11.18 -11.35C-10.48 -11.35 -9.93 -11.13 -9.54 -10.69C-9.15 -10.25 -8.95 -9.62 -8.95 -8.78L-8.95 -2.86C-8.95 -2.49 -9.06 -2.23 -9.29 -2.08C-9.51 -1.92 -9.93 -1.82 -10.54 -1.75C-10.57 -1.53 -10.58 -1.34 -10.56 -1.2L-6.1 -1.2C-6.06 -1.39 -6.05 -1.58 -6.05 -1.75C-6.66 -1.8 -7.22 -1.94 -7.75 -2.16Z M2.47 -10.82C3.02 -10.3 3.3 -9.48 3.31 -8.38L0.12 -8.38L-2.93 -8.18C-2.74 -9.32 -2.31 -10.18 -1.64 -10.75C-0.98 -11.33 -0.26 -11.62 0.5 -11.62C1.27 -11.62 1.93 -11.35 2.47 -10.82ZM-3.05 -6.84C-3.05 -7.16 -3.04 -7.39 -3.02 -7.54L4.44 -7.54C4.47 -7.57 4.54 -7.66 4.63 -7.8C4.63 -9.22 4.26 -10.34 3.53 -11.15C2.79 -11.96 1.85 -12.36 0.71 -12.36C-0.44 -12.36 -1.54 -11.9 -2.59 -10.97C-3.1 -10.52 -3.52 -9.9 -3.84 -9.11C-4.16 -8.32 -4.32 -7.43 -4.32 -6.46C-4.32 -4.68 -3.84 -3.31 -2.89 -2.35C-1.94 -1.39 -0.86 -0.91 0.36 -0.91C1.96 -0.91 3.34 -1.57 4.49 -2.88L4.37 -3.19C3.2 -2.36 2 -1.94 0.77 -1.94C-0.46 -1.94 -1.41 -2.38 -2.06 -3.25C-2.72 -4.12 -3.05 -5.32 -3.05 -6.84Z M18.53 -11.42C19.14 -11.42 19.73 -11.35 20.3 -11.21L20.3 -2.93C19.57 -2.24 18.66 -1.9 17.58 -1.9C16.5 -1.9 15.65 -2.3 15.04 -3.1C14.42 -3.9 14.11 -5.1 14.11 -6.71C14.11 -8.32 14.5 -9.5 15.28 -10.27C16.05 -11.04 17.14 -11.42 18.53 -11.42ZM21.7 -0.91C22.26 -0.91 22.78 -1.23 23.26 -1.87L23.14 -2.04C22.77 -1.96 22.46 -1.92 22.2 -1.92C21.94 -1.92 21.76 -2.02 21.66 -2.21C21.56 -2.4 21.5 -2.74 21.5 -3.24L21.5 -18.34C20.54 -18.14 19.6 -17.85 18.67 -17.45C18.62 -17.3 18.6 -17.14 18.6 -16.97C18.9 -16.98 19.2 -16.99 19.48 -16.99C19.76 -16.99 20.03 -16.98 20.3 -16.97L20.3 -12.24C19.86 -12.32 19.43 -12.36 19.03 -12.36C17.3 -12.36 15.84 -11.84 14.65 -10.79C13.46 -9.74 12.86 -8.31 12.86 -6.5C12.86 -4.7 13.28 -3.31 14.1 -2.35C14.92 -1.39 15.97 -0.91 17.23 -0.91C18.5 -0.91 19.53 -1.34 20.33 -2.21C20.39 -1.81 20.55 -1.49 20.8 -1.26C21.04 -1.03 21.34 -0.91 21.7 -0.91Z M27.77 -9.46C27.77 -10.56 27.71 -11.48 27.6 -12.22C26.88 -12.06 25.99 -11.77 24.94 -11.35C24.89 -11.21 24.86 -11.06 24.86 -10.9L25.48 -10.9C25.74 -10.9 26.1 -10.89 26.57 -10.87L26.57 -2.88C26.57 -2.51 26.45 -2.25 26.22 -2.1C25.99 -1.95 25.56 -1.83 24.94 -1.75C24.9 -1.53 24.9 -1.34 24.91 -1.2L30.31 -1.2C30.36 -1.34 30.38 -1.53 30.38 -1.75C29.39 -1.8 28.52 -1.98 27.77 -2.28L27.77 -7.61C27.88 -8.44 28.19 -9.14 28.7 -9.7C29.57 -10.64 30.65 -11.11 31.94 -11.11C32.01 -11.4 32.04 -11.65 32.04 -11.86C32.04 -12.06 32.02 -12.23 31.97 -12.36C31.1 -12.36 30.28 -12.07 29.51 -11.48C28.73 -10.9 28.15 -10.12 27.77 -9.14Z M40.13 -10.82C40.67 -10.3 40.95 -9.48 40.97 -8.38L37.78 -8.38L34.73 -8.18C34.92 -9.32 35.35 -10.18 36.01 -10.75C36.68 -11.33 37.39 -11.62 38.16 -11.62C38.93 -11.62 39.58 -11.35 40.13 -10.82ZM34.61 -6.84C34.61 -7.16 34.62 -7.39 34.63 -7.54L42.1 -7.54C42.13 -7.57 42.19 -7.66 42.29 -7.8C42.29 -9.22 41.92 -10.34 41.18 -11.15C40.45 -11.96 39.51 -12.36 38.36 -12.36C37.22 -12.36 36.12 -11.9 35.06 -10.97C34.55 -10.52 34.14 -9.9 33.82 -9.11C33.5 -8.32 33.34 -7.43 33.34 -6.46C33.34 -4.68 33.81 -3.31 34.76 -2.35C35.72 -1.39 36.8 -0.91 38.02 -0.91C39.62 -0.91 40.99 -1.57 42.14 -2.88L42.02 -3.19C40.86 -2.36 39.66 -1.94 38.42 -1.94C37.19 -1.94 36.25 -2.38 35.59 -3.25C34.94 -4.12 34.61 -5.32 34.61 -6.84Z M45.82 -3.98C45.82 -5.38 46.69 -6.3 48.43 -6.74L50.42 -7.25L50.42 -2.98C49.75 -2.29 48.93 -1.94 47.95 -1.94C47.3 -1.94 46.78 -2.12 46.39 -2.47C46.01 -2.82 45.82 -3.33 45.82 -3.98ZM51.84 -0.91C52.43 -0.91 52.94 -1.23 53.38 -1.87L53.3 -2.04C52.94 -1.96 52.62 -1.92 52.37 -1.92C52.11 -1.92 51.93 -2.02 51.82 -2.22C51.7 -2.42 51.65 -2.76 51.65 -3.24L51.65 -9.31C51.65 -10.26 51.4 -11 50.89 -11.54C50.39 -12.09 49.7 -12.36 48.84 -12.36C47.48 -12.36 46.24 -11.91 45.12 -11.02L45.34 -10.7C46.46 -11.12 47.44 -11.33 48.29 -11.33C49.14 -11.33 49.7 -11.14 49.99 -10.78C50.28 -10.41 50.42 -9.85 50.42 -9.1L50.42 -7.94L48.29 -7.44C46.99 -7.15 46.04 -6.72 45.44 -6.14C44.84 -5.57 44.54 -4.83 44.54 -3.94C44.54 -3.04 44.84 -2.31 45.42 -1.75C46 -1.19 46.78 -0.91 47.76 -0.91C48.74 -0.91 49.63 -1.35 50.45 -2.23C50.51 -1.82 50.67 -1.49 50.93 -1.26C51.18 -1.03 51.49 -0.91 51.84 -0.91Z M71.45 -8.83C71.45 -9.98 71.16 -10.86 70.57 -11.46C69.99 -12.06 69.26 -12.36 68.39 -12.36C67.52 -12.36 66.75 -12.12 66.1 -11.63C65.44 -11.14 64.93 -10.48 64.56 -9.65C64.42 -10.54 64.07 -11.22 63.52 -11.68C62.96 -12.13 62.3 -12.36 61.54 -12.36C59.9 -12.36 58.67 -11.52 57.84 -9.84C57.81 -10.8 57.75 -11.59 57.67 -12.22C56.95 -12.06 56.06 -11.77 55.01 -11.35C54.96 -11.21 54.94 -11.06 54.94 -10.9L55.55 -10.9C55.81 -10.9 56.18 -10.89 56.64 -10.87L56.64 -2.86C56.64 -2.49 56.53 -2.23 56.3 -2.08C56.08 -1.92 55.66 -1.82 55.03 -1.75C55 -1.53 54.99 -1.34 55.01 -1.2L59.47 -1.2C59.52 -1.34 59.54 -1.53 59.54 -1.75C58.9 -1.8 58.34 -1.94 57.84 -2.16L57.84 -8.83C58.56 -10.51 59.68 -11.35 61.2 -11.35C61.9 -11.35 62.45 -11.13 62.84 -10.69C63.24 -10.25 63.43 -9.62 63.43 -8.78L63.43 -2.86C63.43 -2.49 63.32 -2.23 63.1 -2.08C62.87 -1.92 62.46 -1.82 61.85 -1.75C61.82 -1.53 61.81 -1.34 61.82 -1.2L66.29 -1.2C66.32 -1.39 66.34 -1.58 66.34 -1.75C65.73 -1.8 65.16 -1.94 64.63 -2.16L64.63 -8.76C65.34 -10.49 66.46 -11.35 68.02 -11.35C68.72 -11.35 69.27 -11.13 69.66 -10.69C70.05 -10.25 70.25 -9.62 70.25 -8.78L70.25 -2.86C70.25 -2.49 70.14 -2.23 69.91 -2.08C69.69 -1.92 69.27 -1.82 68.66 -1.75C68.63 -1.53 68.62 -1.34 68.64 -1.2L73.1 -1.2C73.14 -1.39 73.15 -1.58 73.15 -1.75C72.54 -1.8 71.98 -1.94 71.45 -2.16Z"></path></g></g></svg>