<svg id="SvgjsSvg1038" width="100%" height="100%" xmlns="http://www.w3.org/2000/svg" version="1.1" xlink="http://www.w3.org/1999/xlink" xmlns:svgjs="http://svgjs.com/svgjs" preserveAspectRatio="xMidYMid meet" viewBox="0 0 300.0048828125 59.39360809326172" overflow="visible"><defs id="SvgjsDefs1039"></defs><g id="SvgjsG1040" transform="scale(0.4877090808829746)" opacity="1"><g id="SvgjsG1041" class="r4sKMlATh" transform="translate(0, 0) scale(0.4294104279939589)" light-content="false" fill="#0f0f0f"><path d="M141.8 10C69.1 10 10 69.1 10 141.8s59.1 131.8 131.8 131.8 131.8-59.1 131.8-131.8S214.5 10 141.8 10zm0 257.7C72.5 267.7 16 211.2 16 141.8S72.5 16 141.8 16s125.8 56.5 125.8 125.8-56.4 125.9-125.8 125.9z"></path><path d="M141.8 0C63.6 0 0 63.6 0 141.8s63.6 141.8 141.8 141.8S283.6 220 283.6 141.8 220.1 0 141.8 0zm0 277.7C66.9 277.7 6 216.7 6 141.8S66.9 6 141.8 6s135.8 60.9 135.8 135.8-60.9 135.9-135.8 135.9z"></path></g><g id="SvgjsG1042" class="text" transform="translate(61.46239954223633, 72.68040053405761) scale(1)" light-content="false" fill="#0f0f0f"><path d="M-40.73 0L-33.39 0L-33.39 -0.72L-36.49 -1.62L-33.71 -8.68L-24.82 -8.68L-22.01 -1.66L-25.11 -0.72L-25.11 0L-16.72 0L-16.72 -0.72L-18.99 -1.66L-28.13 -23.94L-29.39 -23.94L-38.57 -1.62L-40.73 -0.72ZM-33.03 -10.37L-29.29 -19.8L-25.51 -10.37Z M-13.19 0L-4.59 0L-4.59 -0.72L-7.54 -1.8L-7.54 -11.41L5.24 -11.41L5.24 -1.8L2.29 -0.72L2.29 0L10.89 0L10.89 -0.72L8.05 -1.8L8.05 -21.96L10.89 -23.04L10.89 -23.76L2.29 -23.76L2.29 -23.04L5.24 -21.96L5.24 -13.1L-7.54 -13.1L-7.54 -21.96L-4.59 -23.04L-4.59 -23.76L-13.19 -23.76L-13.19 -23.04L-10.35 -21.96L-10.35 -1.8L-13.19 -0.72Z M27.59 0.36C29.35 0.36 30.91 0.04 32.29 -0.61C33.67 -1.26 34.76 -2.27 35.55 -3.64C36.34 -5 36.74 -6.78 36.74 -8.96L36.74 -22L39.58 -23.04L39.58 -23.76L31.05 -23.76L31.05 -23.04L34.65 -22.03L34.65 -8.35C34.65 -6.72 34.37 -5.4 33.8 -4.39C33.24 -3.38 32.49 -2.65 31.55 -2.18C30.62 -1.71 29.57 -1.48 28.42 -1.48C27.03 -1.48 25.79 -1.73 24.71 -2.23C23.63 -2.74 22.79 -3.57 22.18 -4.73C21.56 -5.9 21.26 -7.48 21.26 -9.47L21.26 -21.96L24.14 -23.04L24.14 -23.76L15.57 -23.76L15.57 -23.04L18.45 -21.96L18.45 -8.96C18.45 -6.78 18.85 -5 19.64 -3.64C20.43 -2.27 21.52 -1.26 22.9 -0.61C24.28 0.04 25.84 0.36 27.59 0.36Z"></path></g><g id="SvgjsG1043" class="text" transform="translate(385.9507981689453, 57.80540076293945) scale(1)" light-content="false" fill="#0f0f0f"><path d="M-229.17 0L-216.93 0L-216.93 -1.2L-222.09 -2.7L-217.47 -14.46L-202.65 -14.46L-197.97 -2.76L-203.13 -1.2L-203.13 0L-189.15 0L-189.15 -1.2L-192.93 -2.76L-208.17 -39.9L-210.27 -39.9L-225.57 -2.7L-229.17 -1.2ZM-216.33 -17.28L-210.09 -33L-203.79 -17.28Z M-183.27 0L-168.39 0L-168.39 -1.2L-173.79 -3L-173.79 -17.46L-170.31 -17.46C-167.07 -17.46 -164.18 -17.96 -161.64 -18.96C-159.1 -19.96 -157.11 -21.31 -155.67 -23.01C-154.23 -24.71 -153.51 -26.66 -153.51 -28.86C-153.51 -32.58 -154.94 -35.3 -157.8 -37.02C-160.66 -38.74 -164.45 -39.6 -169.17 -39.6L-183.27 -39.6L-183.27 -38.4L-178.47 -36.6L-178.47 -3L-183.27 -1.2ZM-173.79 -36.78L-169.35 -36.78C-165.95 -36.78 -163.3 -36.12 -161.4 -34.8C-159.5 -33.48 -158.55 -31.34 -158.55 -28.38C-158.55 -25.98 -159.49 -24.03 -161.37 -22.53C-163.25 -21.03 -165.77 -20.28 -168.93 -20.28L-173.79 -20.28Z M-146.49 0L-116.49 0L-116.49 -10.68L-117.51 -10.68L-120.75 -2.82L-137.07 -2.82L-137.07 -19.02L-126.57 -19.02L-124.17 -14.16L-123.15 -14.16L-123.15 -26.82L-124.17 -26.82L-126.57 -21.84L-137.07 -21.84L-137.07 -36.78L-122.43 -36.78L-119.19 -29.52L-118.17 -29.52L-118.17 -39.6L-146.49 -39.6L-146.49 -38.4L-141.75 -36.6L-141.75 -3L-146.49 -1.2Z M-110.19 0L-97.29 0L-97.29 -1.2L-102.09 -2.88L-102.09 -3.12L-91.41 -17.58L-80.85 -3.06L-80.85 -2.82L-85.29 -1.2L-85.29 0L-70.71 0L-70.71 -1.2L-75.15 -3.06L-88.17 -20.7L-75.87 -36.84L-72.21 -38.4L-72.21 -39.6L-84.21 -39.6L-84.21 -38.4L-79.71 -36.72L-79.71 -36.48L-89.85 -22.98L-99.75 -36.42L-99.75 -36.72L-95.01 -38.4L-95.01 -39.6L-109.29 -39.6L-109.29 -38.4L-105.39 -36.78L-93.03 -19.8L-105.81 -2.94L-110.19 -1.2Z M-49.71 0L-35.37 0L-35.37 -1.2L-40.29 -3L-40.29 -19.02L-18.99 -19.02L-18.99 -3L-23.91 -1.2L-23.91 0L-9.57 0L-9.57 -1.2L-14.31 -3L-14.31 -36.6L-9.57 -38.4L-9.57 -39.6L-23.91 -39.6L-23.91 -38.4L-18.99 -36.6L-18.99 -21.84L-40.29 -21.84L-40.29 -36.6L-35.37 -38.4L-35.37 -39.6L-49.71 -39.6L-49.71 -38.4L-44.97 -36.6L-44.97 -3L-49.71 -1.2Z M-1.47 0L12.69 0L12.69 -1.2L7.95 -3L7.95 -36.6L12.69 -38.4L12.69 -39.6L-1.47 -39.6L-1.47 -38.4L3.27 -36.6L3.27 -3L-1.47 -1.2Z M20.79 0L34.77 0L34.77 -1.2L30.27 -3.06L30.27 -18.42L35.73 -18.42L47.49 0L55.41 0L55.41 -1.2L51.45 -2.76L39.99 -19.86C42.47 -20.7 44.48 -21.99 46.02 -23.73C47.56 -25.47 48.33 -27.5 48.33 -29.82C48.33 -32.86 47.12 -35.25 44.7 -36.99C42.28 -38.73 38.97 -39.6 34.77 -39.6L20.79 -39.6L20.79 -38.4L25.59 -36.6L25.59 -3L20.79 -1.2ZM34.17 -36.78C36.97 -36.78 39.19 -36.09 40.83 -34.71C42.47 -33.33 43.29 -31.44 43.29 -29.04C43.29 -26.8 42.46 -24.94 40.8 -23.46C39.14 -21.98 37.05 -21.24 34.53 -21.24L30.27 -21.24L30.27 -36.78Z M59.01 0L89.01 0L89.01 -10.68L87.99 -10.68L84.75 -2.82L68.43 -2.82L68.43 -19.02L78.93 -19.02L81.33 -14.16L82.35 -14.16L82.35 -26.82L81.33 -26.82L78.93 -21.84L68.43 -21.84L68.43 -36.78L83.07 -36.78L86.31 -29.52L87.33 -29.52L87.33 -39.6L59.01 -39.6L59.01 -38.4L63.75 -36.6L63.75 -3L59.01 -1.2Z M132.15 0.6C135.07 0.6 137.68 0.06 139.98 -1.02C142.28 -2.1 144.09 -3.78 145.41 -6.06C146.73 -8.34 147.39 -11.3 147.39 -14.94L147.39 -36.66L152.13 -38.4L152.13 -39.6L137.91 -39.6L137.91 -38.4L143.91 -36.72L143.91 -13.92C143.91 -11.2 143.44 -9 142.5 -7.32C141.56 -5.64 140.31 -4.41 138.75 -3.63C137.19 -2.85 135.45 -2.46 133.53 -2.46C131.21 -2.46 129.15 -2.88 127.35 -3.72C125.55 -4.56 124.14 -5.95 123.12 -7.89C122.1 -9.83 121.59 -12.46 121.59 -15.78L121.59 -36.6L126.39 -38.4L126.39 -39.6L112.11 -39.6L112.11 -38.4L116.91 -36.6L116.91 -14.94C116.91 -11.3 117.57 -8.34 118.89 -6.06C120.21 -3.78 122.02 -2.1 124.32 -1.02C126.62 0.06 129.23 0.6 132.15 0.6Z M171.63 0.6C173.07 0.6 174.53 0.35 176.01 -0.15C177.49 -0.65 178.85 -1.37 180.09 -2.31C181.33 -3.25 182.33 -4.4 183.09 -5.76C183.85 -7.12 184.23 -8.66 184.23 -10.38C184.23 -12.42 183.85 -14.11 183.09 -15.45C182.33 -16.79 181.17 -17.98 179.61 -19.02C178.05 -20.06 176.07 -21.16 173.67 -22.32C171.83 -23.2 170.31 -24.05 169.11 -24.87C167.91 -25.69 167.02 -26.59 166.44 -27.57C165.86 -28.55 165.57 -29.74 165.57 -31.14C165.57 -33.02 166.17 -34.59 167.37 -35.85C168.57 -37.11 170.21 -37.74 172.29 -37.74C173.61 -37.74 174.78 -37.53 175.8 -37.11C176.82 -36.69 177.95 -35.96 179.19 -34.92L181.83 -28.32L182.85 -28.32L182.25 -37.68C180.65 -38.48 179.1 -39.1 177.6 -39.54C176.1 -39.98 174.43 -40.2 172.59 -40.2C171.11 -40.2 169.68 -39.89 168.3 -39.27C166.92 -38.65 165.68 -37.83 164.58 -36.81C163.48 -35.79 162.61 -34.64 161.97 -33.36C161.33 -32.08 161.01 -30.78 161.01 -29.46C161.01 -27.66 161.34 -26.16 162 -24.96C162.66 -23.76 163.61 -22.7 164.85 -21.78C166.09 -20.86 167.63 -19.94 169.47 -19.02C171.55 -17.98 173.36 -17.06 174.9 -16.26C176.44 -15.46 177.63 -14.54 178.47 -13.5C179.31 -12.46 179.73 -11.04 179.73 -9.24C179.73 -6.92 179.05 -5.1 177.69 -3.78C176.33 -2.46 174.41 -1.8 171.93 -1.8C170.57 -1.8 169.23 -2.03 167.91 -2.49C166.59 -2.95 165.21 -3.74 163.77 -4.86L160.65 -11.76L159.63 -11.76L160.23 -2.16C162.07 -1.24 163.83 -0.55 165.51 -0.09C167.19 0.37 169.23 0.6 171.63 0.6Z M189.15 0L201.39 0L201.39 -1.2L196.23 -2.7L200.85 -14.46L215.67 -14.46L220.35 -2.76L215.19 -1.2L215.19 0L229.17 0L229.17 -1.2L225.39 -2.76L210.15 -39.9L208.05 -39.9L192.75 -2.7L189.15 -1.2ZM201.99 -17.28L208.23 -33L214.53 -17.28Z"></path></g><g id="SvgjsG1044" class="text" transform="translate(386.0308, 98.20539923706055) scale(1)" light-content="false" fill="#0f0f0f"><path d="M-229.25 0L-222.26 0L-222.26 -0.6L-224.51 -1.53L-224.51 -9.21L-221.78 -9.21L-215.9 0L-211.94 0L-211.94 -0.6L-213.92 -1.38L-219.65 -9.93C-218.41 -10.35 -217.4 -10.99 -216.63 -11.86C-215.87 -12.73 -215.48 -13.75 -215.48 -14.91C-215.48 -16.43 -216.08 -17.62 -217.29 -18.49C-218.51 -19.36 -220.16 -19.8 -222.26 -19.8L-229.25 -19.8L-229.25 -19.2L-226.85 -18.3L-226.85 -1.5L-229.25 -0.6ZM-222.56 -18.39C-221.16 -18.39 -220.05 -18.04 -219.23 -17.35C-218.41 -16.66 -218 -15.72 -218 -14.52C-218 -13.4 -218.42 -12.47 -219.24 -11.73C-220.07 -10.99 -221.12 -10.62 -222.38 -10.62L-224.51 -10.62L-224.51 -18.39Z M-207.63 0L-201.48 0L-201.48 -0.6L-203.49 -1.35L-203.49 -15.45L-201.48 -16.2L-201.48 -16.8L-207.63 -16.8L-207.63 -16.2L-205.65 -15.45L-205.65 -1.35L-207.63 -0.6Z M-186.21 0.3C-185.17 0.3 -184.08 0.12 -182.94 -0.24C-181.8 -0.6 -180.86 -1.09 -180.12 -1.71L-180.12 -6L-178.23 -6.84L-178.23 -7.41L-184.53 -7.41L-184.53 -6.84L-182.13 -6.03L-182.13 -1.65C-182.77 -1.39 -183.38 -1.21 -183.96 -1.12C-184.54 -1.03 -185.14 -0.99 -185.76 -0.99C-187.08 -0.99 -188.29 -1.31 -189.38 -1.95C-190.47 -2.59 -191.33 -3.51 -191.97 -4.71C-192.61 -5.91 -192.93 -7.36 -192.93 -9.06C-192.93 -10.34 -192.64 -11.5 -192.05 -12.54C-191.46 -13.58 -190.64 -14.4 -189.59 -15.01C-188.54 -15.62 -187.31 -15.93 -185.91 -15.93C-185.21 -15.93 -184.58 -15.82 -184.02 -15.61C-183.46 -15.4 -182.81 -15.05 -182.07 -14.55L-180.69 -11.76L-180.18 -11.76L-180.33 -15.87C-181.05 -16.23 -181.81 -16.52 -182.61 -16.75C-183.41 -16.99 -184.48 -17.1 -185.82 -17.1C-187.08 -17.1 -188.26 -16.87 -189.35 -16.41C-190.44 -15.95 -191.4 -15.3 -192.24 -14.47C-193.08 -13.65 -193.74 -12.67 -194.21 -11.56C-194.68 -10.45 -194.91 -9.24 -194.91 -7.92C-194.91 -6.32 -194.54 -4.9 -193.79 -3.67C-193.04 -2.44 -192.01 -1.47 -190.7 -0.76C-189.39 -0.05 -187.89 0.3 -186.21 0.3Z M-172.42 0L-165.94 0L-165.94 -0.6L-168.16 -1.35L-168.16 -8.04L-158.83 -8.04L-158.83 -1.35L-161.08 -0.6L-161.08 0L-154.63 0L-154.63 -0.6L-156.7 -1.35L-156.7 -15.45L-154.63 -16.2L-154.63 -16.8L-161.08 -16.8L-161.08 -16.2L-158.83 -15.45L-158.83 -9.33L-168.16 -9.33L-168.16 -15.45L-165.94 -16.2L-165.94 -16.8L-172.42 -16.8L-172.42 -16.2L-170.32 -15.45L-170.32 -1.35L-172.42 -0.6Z M-145.01 0L-137.54 0L-137.54 -0.6L-140.21 -1.35L-140.21 -15.51L-135.44 -15.51L-134.09 -11.94L-133.55 -11.94L-133.55 -16.8L-148.97 -16.8L-148.97 -11.94L-148.43 -11.94L-147.11 -15.51L-142.37 -15.51L-142.37 -1.35L-145.01 -0.6Z M-118.02 0L-110.58 0L-110.58 -0.6L-113.28 -1.5L-113.28 -8.73L-111.54 -8.73C-109.92 -8.73 -108.48 -8.98 -107.21 -9.48C-105.94 -9.98 -104.94 -10.65 -104.22 -11.5C-103.5 -12.36 -103.14 -13.33 -103.14 -14.43C-103.14 -16.29 -103.86 -17.65 -105.29 -18.51C-106.72 -19.37 -108.61 -19.8 -110.97 -19.8L-118.02 -19.8L-118.02 -19.2L-115.62 -18.3L-115.62 -1.5L-118.02 -0.6ZM-113.28 -18.39L-111.06 -18.39C-109.36 -18.39 -108.04 -18.06 -107.09 -17.4C-106.14 -16.74 -105.66 -15.67 -105.66 -14.19C-105.66 -12.99 -106.13 -12.01 -107.07 -11.26C-108.01 -10.51 -109.27 -10.14 -110.85 -10.14L-113.28 -10.14Z M-97.27 0L-84.16 0L-84.16 -4.59L-84.67 -4.59L-85.99 -1.29L-93.01 -1.29L-93.01 -8.07L-88.39 -8.07L-87.61 -6.03L-87.1 -6.03L-87.1 -11.4L-87.61 -11.4L-88.39 -9.33L-93.01 -9.33L-93.01 -15.51L-86.68 -15.51L-85.42 -12.6L-84.88 -12.6L-84.88 -16.8L-97.27 -16.8L-97.27 -16.2L-95.17 -15.45L-95.17 -1.35L-97.27 -0.6Z M-69.23 0.3C-67.61 0.3 -66.16 -0.07 -64.89 -0.82C-63.62 -1.57 -62.62 -2.6 -61.89 -3.91C-61.16 -5.23 -60.8 -6.72 -60.8 -8.4C-60.8 -10.08 -61.16 -11.58 -61.89 -12.9C-62.62 -14.22 -63.62 -15.25 -64.89 -16C-66.16 -16.75 -67.61 -17.13 -69.23 -17.13C-70.83 -17.13 -72.26 -16.75 -73.52 -16C-74.78 -15.25 -75.77 -14.22 -76.5 -12.9C-77.23 -11.58 -77.6 -10.08 -77.6 -8.4C-77.6 -6.72 -77.23 -5.23 -76.5 -3.91C-75.77 -2.6 -74.78 -1.57 -73.52 -0.82C-72.26 -0.07 -70.83 0.3 -69.23 0.3ZM-68.69 -1.02C-69.99 -1.02 -71.15 -1.36 -72.17 -2.04C-73.19 -2.72 -73.99 -3.68 -74.57 -4.92C-75.15 -6.16 -75.44 -7.6 -75.44 -9.24C-75.44 -11.24 -74.91 -12.84 -73.85 -14.04C-72.79 -15.24 -71.39 -15.84 -69.65 -15.84C-68.35 -15.84 -67.2 -15.5 -66.2 -14.82C-65.2 -14.14 -64.41 -13.18 -63.84 -11.95C-63.27 -10.72 -62.99 -9.29 -62.99 -7.65C-62.99 -5.63 -63.5 -4.02 -64.53 -2.82C-65.56 -1.62 -66.95 -1.02 -68.69 -1.02Z M-54.38 0L-47.69 0L-47.69 -0.6L-50.09 -1.35L-50.09 -7.23L-48.47 -7.23C-47.09 -7.23 -45.88 -7.43 -44.83 -7.84C-43.78 -8.25 -42.95 -8.82 -42.35 -9.55C-41.75 -10.29 -41.45 -11.14 -41.45 -12.12C-41.45 -13.72 -42.04 -14.9 -43.22 -15.66C-44.4 -16.42 -46.05 -16.8 -48.17 -16.8L-54.38 -16.8L-54.38 -16.2L-52.25 -15.45L-52.25 -1.35L-54.38 -0.6ZM-50.09 -15.51L-48.47 -15.51C-47.01 -15.51 -45.86 -15.24 -45.01 -14.7C-44.16 -14.16 -43.73 -13.27 -43.73 -12.03C-43.73 -10.95 -44.15 -10.09 -44.99 -9.46C-45.83 -8.83 -46.93 -8.52 -48.29 -8.52L-50.09 -8.52Z M-35.58 0L-22.56 0L-22.56 -5.61L-23.1 -5.61L-24.6 -1.29L-31.35 -1.29L-31.35 -15.45L-28.95 -16.2L-28.95 -16.8L-35.58 -16.8L-35.58 -16.2L-33.51 -15.45L-33.51 -1.35L-35.58 -0.6Z M-16.33 0L-3.22 0L-3.22 -4.59L-3.73 -4.59L-5.05 -1.29L-12.07 -1.29L-12.07 -8.07L-7.45 -8.07L-6.67 -6.03L-6.16 -6.03L-6.16 -11.4L-6.67 -11.4L-7.45 -9.33L-12.07 -9.33L-12.07 -15.51L-5.74 -15.51L-4.48 -12.6L-3.94 -12.6L-3.94 -16.8L-16.33 -16.8L-16.33 -16.2L-14.23 -15.45L-14.23 -1.35L-16.33 -0.6Z M2.99 5.97C4.4 5.35 5.41 4.6 6.02 3.71C6.62 2.82 6.91 1.89 6.91 0.93C6.91 0.21 6.76 -0.46 6.45 -1.08C6.14 -1.7 5.69 -2.18 5.09 -2.52C4.83 -2.68 4.59 -2.76 4.37 -2.76C4.13 -2.76 3.89 -2.55 3.64 -2.13L2.96 -0.96L3.01 -0.72L3.95 -0.15C4.38 0.11 4.74 0.42 5.01 0.78C5.28 1.14 5.42 1.6 5.42 2.16C5.42 3.44 4.6 4.51 2.99 5.37Z M22.62 0L29.61 0L29.61 -0.6L27.36 -1.53L27.36 -9.21L30.09 -9.21L35.97 0L39.93 0L39.93 -0.6L37.95 -1.38L32.22 -9.93C33.46 -10.35 34.47 -10.99 35.24 -11.86C36.01 -12.73 36.39 -13.75 36.39 -14.91C36.39 -16.43 35.79 -17.62 34.58 -18.49C33.37 -19.36 31.71 -19.8 29.61 -19.8L22.62 -19.8L22.62 -19.2L25.02 -18.3L25.02 -1.5L22.62 -0.6ZM29.31 -18.39C30.71 -18.39 31.82 -18.04 32.64 -17.35C33.46 -16.66 33.87 -15.72 33.87 -14.52C33.87 -13.4 33.46 -12.47 32.63 -11.73C31.8 -10.99 30.75 -10.62 29.49 -10.62L27.36 -10.62L27.36 -18.39Z M44.24 0L50.39 0L50.39 -0.6L48.38 -1.35L48.38 -15.45L50.39 -16.2L50.39 -16.8L44.24 -16.8L44.24 -16.2L46.22 -15.45L46.22 -1.35L44.24 -0.6Z M65.66 0.3C66.7 0.3 67.79 0.12 68.93 -0.24C70.07 -0.6 71.01 -1.09 71.75 -1.71L71.75 -6L73.64 -6.84L73.64 -7.41L67.34 -7.41L67.34 -6.84L69.74 -6.03L69.74 -1.65C69.1 -1.39 68.49 -1.21 67.91 -1.12C67.33 -1.03 66.73 -0.99 66.11 -0.99C64.79 -0.99 63.58 -1.31 62.49 -1.95C61.4 -2.59 60.54 -3.51 59.9 -4.71C59.26 -5.91 58.94 -7.36 58.94 -9.06C58.94 -10.34 59.23 -11.5 59.82 -12.54C60.41 -13.58 61.23 -14.4 62.28 -15.01C63.33 -15.62 64.56 -15.93 65.96 -15.93C66.66 -15.93 67.29 -15.82 67.85 -15.61C68.41 -15.4 69.06 -15.05 69.8 -14.55L71.18 -11.76L71.69 -11.76L71.54 -15.87C70.82 -16.23 70.06 -16.52 69.26 -16.75C68.46 -16.99 67.39 -17.1 66.05 -17.1C64.79 -17.1 63.61 -16.87 62.52 -16.41C61.43 -15.95 60.47 -15.3 59.63 -14.47C58.79 -13.65 58.13 -12.67 57.66 -11.56C57.19 -10.45 56.96 -9.24 56.96 -7.92C56.96 -6.32 57.33 -4.9 58.08 -3.67C58.83 -2.44 59.86 -1.47 61.17 -0.76C62.48 -0.05 63.98 0.3 65.66 0.3Z M79.45 0L85.93 0L85.93 -0.6L83.71 -1.35L83.71 -8.04L93.04 -8.04L93.04 -1.35L90.79 -0.6L90.79 0L97.24 0L97.24 -0.6L95.17 -1.35L95.17 -15.45L97.24 -16.2L97.24 -16.8L90.79 -16.8L90.79 -16.2L93.04 -15.45L93.04 -9.33L83.71 -9.33L83.71 -15.45L85.93 -16.2L85.93 -16.8L79.45 -16.8L79.45 -16.2L81.55 -15.45L81.55 -1.35L79.45 -0.6Z M106.86 0L114.33 0L114.33 -0.6L111.66 -1.35L111.66 -15.51L116.43 -15.51L117.78 -11.94L118.32 -11.94L118.32 -16.8L102.9 -16.8L102.9 -11.94L103.44 -11.94L104.76 -15.51L109.5 -15.51L109.5 -1.35L106.86 -0.6Z M133.85 0L141.29 0L141.29 -0.6L138.59 -1.5L138.59 -8.73L140.33 -8.73C141.95 -8.73 143.39 -8.98 144.66 -9.48C145.93 -9.98 146.93 -10.65 147.65 -11.5C148.37 -12.36 148.73 -13.33 148.73 -14.43C148.73 -16.29 148.01 -17.65 146.58 -18.51C145.15 -19.37 143.26 -19.8 140.9 -19.8L133.85 -19.8L133.85 -19.2L136.25 -18.3L136.25 -1.5L133.85 -0.6ZM138.59 -18.39L140.81 -18.39C142.51 -18.39 143.83 -18.06 144.78 -17.4C145.73 -16.74 146.21 -15.67 146.21 -14.19C146.21 -12.99 145.74 -12.01 144.8 -11.26C143.86 -10.51 142.6 -10.14 141.02 -10.14L138.59 -10.14Z M154.6 0L167.62 0L167.62 -5.61L167.08 -5.61L165.58 -1.29L158.83 -1.29L158.83 -15.45L161.23 -16.2L161.23 -16.8L154.6 -16.8L154.6 -16.2L156.67 -15.45L156.67 -1.35L154.6 -0.6Z M172.11 0L177.42 0L177.42 -0.6L175.17 -1.2L177.15 -6.06L183.51 -6.06L185.52 -1.23L183.36 -0.6L183.36 0L189.51 0L189.51 -0.6L187.83 -1.26L181.23 -16.95L180.24 -16.95L173.58 -1.17L172.11 -0.6ZM177.66 -7.32L180.3 -13.83L183 -7.32Z M203.01 0.3C204.33 0.3 205.42 0.18 206.28 -0.06C207.14 -0.3 207.94 -0.61 208.68 -0.99L208.92 -4.86L208.38 -4.86L206.61 -1.74C205.73 -1.22 204.62 -0.96 203.28 -0.96C201.9 -0.96 200.68 -1.27 199.63 -1.89C198.58 -2.51 197.77 -3.4 197.19 -4.56C196.61 -5.72 196.32 -7.11 196.32 -8.73C196.32 -10.03 196.61 -11.22 197.19 -12.3C197.77 -13.38 198.57 -14.23 199.6 -14.86C200.63 -15.49 201.83 -15.81 203.19 -15.81C203.83 -15.81 204.43 -15.73 204.99 -15.55C205.55 -15.39 206.12 -15.1 206.7 -14.7L208.11 -11.79L208.62 -11.79L208.53 -15.87C207.81 -16.21 207.07 -16.5 206.32 -16.75C205.57 -17 204.57 -17.13 203.31 -17.13C202.07 -17.13 200.9 -16.9 199.81 -16.44C198.72 -15.98 197.75 -15.34 196.9 -14.52C196.05 -13.7 195.39 -12.73 194.91 -11.62C194.43 -10.51 194.19 -9.3 194.19 -7.98C194.19 -6.38 194.57 -4.96 195.33 -3.7C196.09 -2.45 197.13 -1.47 198.45 -0.76C199.77 -0.05 201.29 0.3 203.01 0.3Z M215.99 0L229.1 0L229.1 -4.59L228.59 -4.59L227.27 -1.29L220.25 -1.29L220.25 -8.07L224.87 -8.07L225.65 -6.03L226.16 -6.03L226.16 -11.4L225.65 -11.4L224.87 -9.33L220.25 -9.33L220.25 -15.51L226.58 -15.51L227.84 -12.6L228.38 -12.6L228.38 -16.8L215.99 -16.8L215.99 -16.2L218.09 -15.45L218.09 -1.35L215.99 -0.6Z"></path></g></g></svg>